# xmcd
#
# Track frame offsets: 
#        150
#        16348
#        38635
#        51772
#        74320
#        95048
#        114454
#        132421
#        151462
#        169756
#        187546
#        204598
#        227501
#        243896
#        259900
#
# Disc length: 3784 seconds
#
# Revision: 0
# Processed by: cddbd v1.5.2PL0 Copyright (c) Steve Scherf et al.
# Submitted via: ExactAudioCopyFreeDBPlugin 1.0
#
DISCID=c10ec60f
DTITLE=Craig Carothers - The Vagabond
DYEAR=2012
DGENRE=Country
TTITLE0=The Vagabond 
TTITLE1=Nothing's Gonna Stop Me
TTITLE2=No You in We
TTITLE3=Just to Say I Did
TTITLE4=Don't Come Back
TTITLE5=Can't Take It With You
TTITLE6=Schenectady
TTITLE7=Give Up On Love
TTITLE8=Bad Idea
TTITLE9=Mr. Sorry
TTITLE10=Give It Back
TTITLE11=Before I Fall
TTITLE12=Queen of Understanding
TTITLE13=Messages of Grace
TTITLE14=You
EXTD=
EXTT0=
EXTT1=
EXTT2=
EXTT3=
EXTT4=
EXTT5=
EXTT6=
EXTT7=
EXTT8=
EXTT9=
EXTT10=
EXTT11=
EXTT12=
EXTT13=
EXTT14=
PLAYORDER=
